<?xml version="1.0" encoding="UTF-8" standalone="no"?><!DOCTYPE svg PUBLIC "-//W3C//DTD SVG 1.1//EN" "http://www.w3.org/Graphics/SVG/1.1/DTD/svg11.dtd"><svg height="{{ navigation.logo.height }}" viewBox="0 0 1862 289" version="1.1" xmlns="http://www.w3.org/2000/svg" xmlns:xlink="http://www.w3.org/1999/xlink" xml:space="preserve" xmlns:serif="http://www.serif.com/" style="fill-rule:evenodd;clip-rule:evenodd;stroke-linejoin:round;stroke-miterlimit:2;"><rect id="Text" x="0.234" y="0.182" width="1861.36" height="288.464" style="fill:none;"/><clipPath id="_clip1"><rect x="0.234" y="0.182" width="1861.36" height="288.464"/></clipPath><g clip-path="url(#_clip1)"><g id="thirdeyemedia"><path d="M0.876,36.603l44.726,-7.204l-0,46.527l53.73,-0l0,37.221l-53.73,-0l-0,55.531c-0,9.406 1.651,16.91 4.952,22.513c3.302,5.603 9.956,8.405 19.962,8.405c4.802,0 9.755,-0.45 14.858,-1.351c5.103,-0.9 9.756,-2.151 13.958,-3.752l6.304,34.82c-5.403,2.201 -11.407,4.102 -18.01,5.703c-6.604,1.601 -14.709,2.402 -24.314,2.402c-12.207,-0 -22.313,-1.651 -30.318,-4.953c-8.004,-3.302 -14.408,-7.905 -19.211,-13.808c-4.802,-5.903 -8.154,-13.058 -10.055,-21.462c-1.901,-8.405 -2.852,-17.71 -2.852,-27.916l0,-132.676Z" style="fill-rule:nonzero;"/><path d="M120.644,233.816l0,-225.729l44.726,-7.204l-0,75.643c3.002,-1.001 6.854,-1.951 11.556,-2.852c4.703,-0.9 9.256,-1.35 13.658,-1.35c12.807,-0 23.464,1.751 31.968,5.253c8.505,3.502 15.309,8.454 20.412,14.858c5.103,6.404 8.705,14.008 10.806,22.813c2.101,8.805 3.152,18.611 3.152,29.417l-0,89.151l-44.726,-0l0,-83.748c0,-14.408 -1.851,-24.614 -5.553,-30.618c-3.702,-6.003 -10.556,-9.005 -20.561,-9.005c-4.003,0 -7.755,0.35 -11.257,1.051c-3.502,0.7 -6.654,1.451 -9.455,2.251l-0,120.069l-44.726,-0Z" style="fill-rule:nonzero;"/><path d="M327.162,233.816l-44.725,-0l-0,-157.89l44.725,-0l-0,157.89Zm4.202,-203.516c0,8.204 -2.651,14.658 -7.954,19.361c-5.303,4.702 -11.557,7.054 -18.761,7.054c-7.204,-0 -13.458,-2.352 -18.761,-7.054c-5.303,-4.703 -7.954,-11.157 -7.954,-19.361c-0,-8.205 2.651,-14.659 7.954,-19.361c5.303,-4.703 11.557,-7.054 18.761,-7.054c7.204,-0 13.458,2.351 18.761,7.054c5.303,4.702 7.954,11.156 7.954,19.361Z" style="fill-rule:nonzero;"/><path d="M449.332,115.548c-4.003,-1 -8.705,-2.051 -14.108,-3.152c-5.404,-1.1 -11.207,-1.651 -17.41,-1.651c-2.802,0 -6.154,0.251 -10.056,0.751c-3.902,0.5 -6.854,1.05 -8.855,1.651l-0,120.669l-44.726,-0l0,-149.486c8.005,-2.801 17.46,-5.453 28.367,-7.954c10.906,-2.502 23.063,-3.752 36.47,-3.752c2.402,-0 5.303,0.15 8.705,0.45c3.402,0.3 6.804,0.7 10.206,1.201c3.402,0.5 6.804,1.1 10.206,1.801c3.402,0.7 6.304,1.551 8.705,2.551l-7.504,36.921Z" style="fill-rule:nonzero;"/><path d="M500.961,153.67c0,13.808 3.102,24.914 9.305,33.319c6.204,8.405 15.409,12.607 27.616,12.607c4.002,0 7.704,-0.15 11.106,-0.45c3.402,-0.3 6.204,-0.651 8.405,-1.051l0,-81.346c-2.801,-1.801 -6.454,-3.302 -10.956,-4.503c-4.503,-1.2 -9.055,-1.801 -13.658,-1.801c-21.212,0 -31.818,14.408 -31.818,43.225Zm101.158,75.043c-4.003,1.2 -8.605,2.351 -13.808,3.452c-5.203,1.1 -10.656,2.051 -16.36,2.851c-5.703,0.801 -11.506,1.451 -17.409,1.951c-5.904,0.501 -11.557,0.751 -16.96,0.751c-13.008,-0 -24.614,-1.901 -34.82,-5.703c-10.206,-3.803 -18.811,-9.256 -25.815,-16.36c-7.004,-7.104 -12.357,-15.709 -16.059,-25.815c-3.702,-10.105 -5.553,-21.462 -5.553,-34.069c0,-12.807 1.601,-24.364 4.803,-34.67c3.202,-10.306 7.804,-19.061 13.808,-26.265c6.003,-7.204 13.357,-12.707 22.062,-16.509c8.705,-3.802 18.661,-5.703 29.867,-5.703c6.204,-0 11.757,0.6 16.66,1.801c4.902,1.2 9.855,2.901 14.858,5.103l0,-71.441l44.726,-7.204l-0,227.83Z" style="fill-rule:nonzero;"/><path d="M621.63,156.071c-0,-14.008 2.151,-26.265 6.453,-36.771c4.303,-10.506 9.956,-19.261 16.96,-26.265c7.004,-7.004 15.059,-12.307 24.164,-15.909c9.105,-3.602 18.46,-5.403 28.066,-5.403c22.413,0 40.123,6.854 53.13,20.562c13.008,13.708 19.511,33.869 19.511,60.484c0,2.602 -0.1,5.453 -0.3,8.555c-0.2,3.102 -0.4,5.854 -0.6,8.255l-101.458,-0c1,9.205 5.303,16.509 12.907,21.912c7.605,5.403 17.81,8.105 30.618,8.105c8.204,0 16.259,-0.75 24.163,-2.251c7.905,-1.501 14.359,-3.352 19.362,-5.553l6.003,36.32c-2.401,1.201 -5.603,2.402 -9.606,3.602c-4.002,1.201 -8.454,2.252 -13.357,3.152c-4.903,0.901 -10.156,1.651 -15.759,2.251c-5.603,0.601 -11.207,0.901 -16.81,0.901c-14.208,-0 -26.565,-2.101 -37.071,-6.304c-10.506,-4.202 -19.211,-9.955 -26.115,-17.26c-6.904,-7.304 -12.007,-15.959 -15.308,-25.964c-3.302,-10.006 -4.953,-20.812 -4.953,-32.419Zm105.06,-17.11c-0.2,-3.802 -0.851,-7.504 -1.951,-11.106c-1.101,-3.602 -2.802,-6.804 -5.103,-9.605c-2.302,-2.802 -5.203,-5.103 -8.705,-6.904c-3.502,-1.801 -7.855,-2.702 -13.058,-2.702c-5.003,0 -9.305,0.851 -12.907,2.552c-3.602,1.701 -6.604,3.952 -9.005,6.754c-2.402,2.801 -4.253,6.053 -5.553,9.755c-1.301,3.702 -2.252,7.454 -2.852,11.256l59.134,0Z" style="fill:#5b2ba1;fill-rule:nonzero;"/><path d="M929.605,75.926c-9.005,30.417 -18.41,58.933 -28.216,85.548c-9.805,26.615 -20.512,52.43 -32.118,77.444c-4.203,9.006 -8.405,16.66 -12.607,22.964c-4.203,6.303 -8.805,11.506 -13.808,15.608c-5.003,4.103 -10.656,7.104 -16.96,9.006c-6.303,1.901 -13.658,2.851 -22.062,2.851c-7.004,0 -13.458,-0.65 -19.361,-1.951c-5.904,-1.301 -10.757,-2.752 -14.559,-4.352l7.805,-35.721c4.602,1.601 8.705,2.702 12.307,3.302c3.602,0.6 7.404,0.901 11.406,0.901c8.005,-0 14.158,-2.152 18.461,-6.454c4.302,-4.303 7.954,-10.256 10.956,-17.86c-10.206,-20.012 -20.412,-42.474 -30.617,-67.389c-10.206,-24.914 -19.812,-52.88 -28.817,-83.897l47.427,-0c2.001,7.804 4.353,16.259 7.054,25.364c2.702,9.105 5.553,18.31 8.555,27.616c3.002,9.305 6.053,18.36 9.155,27.165c3.102,8.805 6.054,16.81 8.855,24.014c2.602,-7.204 5.303,-15.209 8.105,-24.014c2.801,-8.805 5.553,-17.86 8.255,-27.165c2.701,-9.306 5.303,-18.511 7.804,-27.616c2.501,-9.105 4.753,-17.56 6.754,-25.364l46.226,-0Z" style="fill:#5b2ba1;fill-rule:nonzero;"/><path d="M926.904,156.071c-0,-14.008 2.151,-26.265 6.453,-36.771c4.303,-10.506 9.956,-19.261 16.96,-26.265c7.004,-7.004 15.059,-12.307 24.164,-15.909c9.105,-3.602 18.46,-5.403 28.066,-5.403c22.413,0 40.123,6.854 53.13,20.562c13.007,13.708 19.511,33.869 19.511,60.484c0,2.602 -0.1,5.453 -0.3,8.555c-0.2,3.102 -0.4,5.854 -0.6,8.255l-101.458,-0c1,9.205 5.303,16.509 12.907,21.912c7.605,5.403 17.81,8.105 30.618,8.105c8.204,0 16.259,-0.75 24.163,-2.251c7.905,-1.501 14.359,-3.352 19.361,-5.553l6.004,36.32c-2.401,1.201 -5.603,2.402 -9.606,3.602c-4.002,1.201 -8.454,2.252 -13.357,3.152c-4.903,0.901 -10.156,1.651 -15.759,2.251c-5.603,0.601 -11.207,0.901 -16.81,0.901c-14.208,-0 -26.565,-2.101 -37.071,-6.304c-10.506,-4.202 -19.211,-9.955 -26.115,-17.26c-6.904,-7.304 -12.007,-15.959 -15.308,-25.964c-3.302,-10.006 -4.953,-20.812 -4.953,-32.419Zm105.06,-17.11c-0.201,-3.802 -0.851,-7.504 -1.952,-11.106c-1.1,-3.602 -2.801,-6.804 -5.102,-9.605c-2.302,-2.802 -5.203,-5.103 -8.705,-6.904c-3.502,-1.801 -7.855,-2.702 -13.058,-2.702c-5.003,0 -9.305,0.851 -12.907,2.552c-3.602,1.701 -6.604,3.952 -9.005,6.754c-2.402,2.801 -4.253,6.053 -5.554,9.755c-1.3,3.702 -2.251,7.454 -2.851,11.256l59.134,0Z" style="fill:#5b2ba1;fill-rule:nonzero;"/><path d="M1181.45,150.068c-0,-14.408 -1.851,-24.614 -5.553,-30.618c-3.703,-6.003 -10.056,-9.005 -19.061,-9.005c-2.802,0 -5.704,0.15 -8.705,0.45c-3.002,0.301 -5.904,0.651 -8.705,1.051l-0,121.87l-44.726,-0l0,-152.487c3.802,-1.001 8.255,-2.052 13.358,-3.152c5.103,-1.101 10.506,-2.101 16.209,-3.002c5.703,-0.9 11.557,-1.601 17.56,-2.101c6.004,-0.5 11.907,-0.75 17.71,-0.75c11.407,-0 20.662,1.45 27.766,4.352c7.104,2.902 12.957,6.354 17.56,10.356c6.404,-4.603 13.758,-8.205 22.063,-10.806c8.304,-2.602 15.959,-3.902 22.963,-3.902c12.607,-0 22.963,1.751 31.067,5.253c8.105,3.502 14.559,8.454 19.361,14.858c4.803,6.404 8.105,14.008 9.906,22.813c1.801,8.805 2.702,18.611 2.702,29.417l-0,89.151l-44.726,-0l0,-83.748c0,-14.408 -1.851,-24.614 -5.553,-30.618c-3.702,-6.003 -10.056,-9.005 -19.061,-9.005c-2.401,0 -5.753,0.601 -10.056,1.801c-4.302,1.201 -7.854,2.702 -10.656,4.503c1.401,4.602 2.302,9.455 2.702,14.558c0.4,5.103 0.6,10.556 0.6,16.359l0,86.15l-44.725,-0l-0,-83.748Z" style="fill-rule:nonzero;"/><path d="M1330.93,156.071c-0,-14.008 2.151,-26.265 6.454,-36.771c4.302,-10.506 9.955,-19.261 16.959,-26.265c7.004,-7.004 15.059,-12.307 24.164,-15.909c9.105,-3.602 18.461,-5.403 28.066,-5.403c22.413,0 40.123,6.854 53.13,20.562c13.008,13.708 19.511,33.869 19.511,60.484c0,2.602 -0.1,5.453 -0.3,8.555c-0.2,3.102 -0.4,5.854 -0.6,8.255l-101.458,-0c1.001,9.205 5.303,16.509 12.907,21.912c7.605,5.403 17.811,8.105 30.618,8.105c8.205,0 16.259,-0.75 24.164,-2.251c7.904,-1.501 14.358,-3.352 19.361,-5.553l6.003,36.32c-2.401,1.201 -5.603,2.402 -9.605,3.602c-4.003,1.201 -8.455,2.252 -13.358,3.152c-4.903,0.901 -10.156,1.651 -15.759,2.251c-5.603,0.601 -11.206,0.901 -16.81,0.901c-14.208,-0 -26.565,-2.101 -37.071,-6.304c-10.506,-4.202 -19.211,-9.955 -26.115,-17.26c-6.904,-7.304 -12.006,-15.959 -15.308,-25.964c-3.302,-10.006 -4.953,-20.812 -4.953,-32.419Zm105.06,-17.11c-0.2,-3.802 -0.851,-7.504 -1.951,-11.106c-1.101,-3.602 -2.802,-6.804 -5.103,-9.605c-2.302,-2.802 -5.203,-5.103 -8.705,-6.904c-3.502,-1.801 -7.855,-2.702 -13.058,-2.702c-5.003,0 -9.305,0.851 -12.907,2.552c-3.602,1.701 -6.604,3.952 -9.005,6.754c-2.402,2.801 -4.253,6.053 -5.553,9.755c-1.301,3.702 -2.252,7.454 -2.852,11.256l59.134,0Z" style="fill-rule:nonzero;"/><path d="M1536.85,153.67c0,13.808 3.102,24.914 9.306,33.319c6.203,8.405 15.408,12.607 27.615,12.607c4.003,0 7.705,-0.15 11.107,-0.45c3.402,-0.3 6.203,-0.651 8.404,-1.051l0,-81.346c-2.801,-1.801 -6.453,-3.302 -10.956,-4.503c-4.502,-1.2 -9.055,-1.801 -13.658,-1.801c-21.212,0 -31.818,14.408 -31.818,43.225Zm101.158,75.043c-4.002,1.2 -8.605,2.351 -13.808,3.452c-5.203,1.1 -10.656,2.051 -16.359,2.851c-5.704,0.801 -11.507,1.451 -17.41,1.951c-5.904,0.501 -11.557,0.751 -16.96,0.751c-13.007,-0 -24.614,-1.901 -34.82,-5.703c-10.206,-3.803 -18.81,-9.256 -25.814,-16.36c-7.004,-7.104 -12.358,-15.709 -16.06,-25.815c-3.702,-10.105 -5.553,-21.462 -5.553,-34.069c0,-12.807 1.601,-24.364 4.803,-34.67c3.202,-10.306 7.804,-19.061 13.808,-26.265c6.003,-7.204 13.357,-12.707 22.062,-16.509c8.705,-3.802 18.661,-5.703 29.867,-5.703c6.204,-0 11.757,0.6 16.66,1.801c4.903,1.2 9.856,2.901 14.858,5.103l0,-71.441l44.726,-7.204l-0,227.83Z" style="fill-rule:nonzero;"/><path d="M1709.75,233.816l-44.726,-0l0,-157.89l44.726,-0l-0,157.89Zm4.202,-203.516c0,8.204 -2.651,14.658 -7.954,19.361c-5.303,4.702 -11.557,7.054 -18.761,7.054c-7.204,-0 -13.458,-2.352 -18.761,-7.054c-5.303,-4.703 -7.954,-11.157 -7.954,-19.361c-0,-8.205 2.651,-14.659 7.954,-19.361c5.303,-4.703 11.557,-7.054 18.761,-7.054c7.204,-0 13.458,2.351 18.761,7.054c5.303,4.702 7.954,11.156 7.954,19.361Z" style="fill-rule:nonzero;"/><path d="M1797.1,202.598c4.403,-0 8.605,-0.1 12.608,-0.3c4.002,-0.201 7.204,-0.501 9.605,-0.901l0,-33.919c-1.801,-0.4 -4.502,-0.801 -8.104,-1.201c-3.603,-0.4 -6.904,-0.6 -9.906,-0.6c-4.203,-0 -8.155,0.25 -11.857,0.75c-3.702,0.5 -6.954,1.451 -9.755,2.852c-2.802,1.401 -5.003,3.302 -6.604,5.703c-1.601,2.401 -2.402,5.403 -2.402,9.005c0,7.004 2.352,11.857 7.054,14.558c4.703,2.702 11.157,4.053 19.361,4.053Zm-3.602,-130.875c13.208,0 24.214,1.501 33.019,4.503c8.805,3.001 15.859,7.304 21.162,12.907c5.303,5.603 9.055,12.407 11.257,20.412c2.201,8.004 3.302,16.909 3.302,26.715l-0,93.053c-6.404,1.401 -15.309,3.052 -26.716,4.953c-11.406,1.901 -25.214,2.851 -41.423,2.851c-10.206,0 -19.461,-0.9 -27.766,-2.701c-8.305,-1.801 -15.459,-4.753 -21.462,-8.855c-6.004,-4.103 -10.606,-9.456 -13.808,-16.059c-3.202,-6.604 -4.803,-14.709 -4.803,-24.314c0,-9.205 1.851,-17.01 5.553,-23.414c3.702,-6.403 8.655,-11.506 14.859,-15.308c6.203,-3.802 13.307,-6.554 21.312,-8.255c8.004,-1.701 16.309,-2.551 24.914,-2.551c5.803,-0 10.956,0.25 15.459,0.75c4.502,0.5 8.155,1.151 10.956,1.951l0,-4.202c0,-7.605 -2.301,-13.708 -6.904,-18.311c-4.602,-4.602 -12.607,-6.904 -24.013,-6.904c-7.605,0 -15.109,0.551 -22.513,1.651c-7.405,1.101 -13.808,2.652 -19.211,4.653l-5.703,-36.021c2.601,-0.8 5.853,-1.65 9.755,-2.551c3.902,-0.901 8.155,-1.701 12.757,-2.401c4.603,-0.701 9.456,-1.301 14.559,-1.801c5.103,-0.501 10.255,-0.751 15.458,-0.751Z" style="fill-rule:nonzero;"/></g></g></svg>
