<svg
  aria-hidden="true"
  focusable="false"
  height="{{ navigation.logo.height }}"
  viewBox="0 0 4624 706"
  version="1.1"
  xmlns="http://www.w3.org/2000/svg"
  xmlns:xlink="http://www.w3.org/1999/xlink"
  xml:space="preserve"
  xmlns:serif="http://www.serif.com/"
  style="fill-rule:evenodd;clip-rule:evenodd;stroke-linejoin:round;stroke-miterlimit:2;">
  <path d="M58.023,52.198l64.984,0l0,106.76l61.057,-0l-0,52.487l-61.057,0l0,249.582c0,13.33 4.523,22.257 13.568,26.779c4.999,2.619 13.33,3.928 24.994,3.928c3.095,-0 6.427,-0.06 9.998,-0.179c3.57,-0.119 7.736,-0.416 12.497,-0.892l-0,50.702c-7.379,2.142 -15.056,3.689 -23.03,4.641c-7.975,0.952 -16.603,1.429 -25.887,1.429c-29.993,-0 -50.345,-7.677 -61.056,-23.031c-10.712,-15.353 -16.068,-35.289 -16.068,-59.806l0,-253.153l-51.773,0l-0,-52.487l51.773,-0l0,-106.76Z" style="fill-rule:nonzero;stroke:#000;stroke-width:12.5px;"/>
  <path d="M248.334,15.065l64.27,-0l-0,195.666c15.234,-19.281 28.921,-32.849 41.061,-40.704c20.709,-13.568 46.536,-20.352 77.481,-20.352c55.463,-0 93.073,19.4 112.83,58.2c10.712,21.185 16.067,50.583 16.067,88.192l0,245.298l-66.055,-0l0,-241.013c0,-28.088 -3.571,-48.679 -10.712,-61.771c-11.663,-20.947 -33.563,-31.42 -65.698,-31.42c-26.66,-0 -50.821,9.164 -72.482,27.493c-21.662,18.329 -32.492,52.963 -32.492,103.903l-0,202.808l-64.27,-0l-0,-526.3Z" style="fill-rule:nonzero;stroke:#000;stroke-width:12.5px;"/>
  <path d="M655.02,160.743l65.341,0l0,380.622l-65.341,-0l0,-380.622Zm0,-143.893l65.341,-0l0,72.839l-65.341,0l0,-72.839Z" style="fill-rule:nonzero;stroke:#000;stroke-width:12.5px;"/>
  <path d="M819.266,158.958l61.056,-0l0,66.055c4.999,-12.854 17.258,-28.505 36.777,-46.953c19.519,-18.447 42.014,-27.671 67.484,-27.671c1.19,-0 3.213,0.119 6.069,0.357c2.857,0.238 7.737,0.714 14.64,1.428l-0,67.841c-3.809,-0.715 -7.32,-1.191 -10.533,-1.429c-3.214,-0.238 -6.725,-0.357 -10.534,-0.357c-32.373,0 -57.247,10.414 -74.624,31.243c-17.377,20.828 -26.065,44.81 -26.065,71.946l-0,219.947l-64.27,-0l-0,-382.407Z" style="fill-rule:nonzero;stroke:#000;stroke-width:12.5px;"/>
  <path d="M1101.7,354.625c-0,40.942 8.688,75.219 26.065,102.832c17.377,27.612 45.227,41.418 83.551,41.418c29.755,-0 54.213,-12.795 73.375,-38.383c19.162,-25.589 28.743,-62.307 28.743,-110.152c-0,-48.322 -9.879,-84.087 -29.636,-107.295c-19.757,-23.209 -44.156,-34.813 -73.196,-34.813c-32.373,-0 -58.617,12.378 -78.731,37.133c-20.114,24.756 -30.171,61.176 -30.171,109.26Zm96.762,-202.451c29.278,-0 53.796,6.189 73.553,18.567c11.426,7.141 24.399,19.638 38.919,37.491l0,-193.167l61.771,-0l0,526.3l-57.843,-0l0,-53.202c-14.996,23.566 -32.73,40.586 -53.201,51.059c-20.471,10.474 -43.918,15.711 -70.34,15.711c-42.609,-0 -79.505,-17.913 -110.688,-53.737c-31.182,-35.825 -46.774,-83.492 -46.774,-143.001c0,-55.701 14.223,-103.963 42.668,-144.786c28.446,-40.823 69.091,-61.235 121.935,-61.235Z" style="fill-rule:nonzero;stroke:#000;stroke-width:12.5px;"/>
  <path d="M1620.49,225.68c-23.854,0 -42.346,7.47 -55.477,22.408c-13.131,14.938 -21.383,35.177 -24.756,60.717l160.104,-0c-1.687,-27.227 -9.939,-47.887 -24.757,-61.982c-14.817,-14.095 -33.189,-21.143 -55.114,-21.143Zm-0,-84.931c32.767,0 62.282,6.144 88.545,18.432c26.262,12.288 47.947,31.684 65.054,58.187c15.42,23.371 25.419,50.477 29.997,81.317c2.65,18.071 3.734,44.092 3.252,78.065l-269.611,-0c1.445,39.514 13.854,67.222 37.225,83.124c14.215,9.878 31.322,14.818 51.32,14.818c21.203,-0 38.43,-6.024 51.682,-18.071c7.228,-6.505 13.613,-15.541 19.154,-27.106l105.17,0c-2.65,23.372 -14.817,47.104 -36.502,71.198c-33.731,38.309 -80.956,57.464 -141.672,57.464c-50.116,0 -94.328,-16.143 -132.638,-48.429c-38.309,-32.286 -57.464,-84.81 -57.464,-157.574c0,-68.186 17.288,-120.47 51.862,-156.852c34.575,-36.382 79.45,-54.573 134.626,-54.573Z" style="fill:#5b2ba1;fill-rule:nonzero;stroke:#000;stroke-width:1.67px;"/>
  <path d="M1892.63,620.701l13.011,0.723c10.119,0.482 19.757,0.12 28.912,-1.084c9.156,-1.205 16.866,-3.976 23.131,-8.313c6.023,-4.096 11.625,-12.649 16.805,-25.66c5.18,-13.011 7.289,-20.962 6.325,-23.853l-144.564,-411.284l114.567,0l86.015,290.573l81.317,-290.573l109.507,0l-135.167,387.431c-26.021,74.691 -46.622,121.012 -61.801,138.962c-15.179,17.95 -45.537,26.925 -91.075,26.925c-9.156,-0 -16.504,-0.06 -22.046,-0.181c-5.542,-0.12 -13.854,-0.542 -24.937,-1.265l-0,-82.401Z" style="fill:#5b2ba1;fill-rule:nonzero;stroke:#000;stroke-width:1.67px;"/>
  <path d="M2443.78,225.68c-23.853,0 -42.345,7.47 -55.476,22.408c-13.131,14.938 -21.383,35.177 -24.757,60.717l160.105,-0c-1.687,-27.227 -9.939,-47.887 -24.757,-61.982c-14.818,-14.095 -33.189,-21.143 -55.115,-21.143Zm0,-84.931c32.768,0 62.283,6.144 88.546,18.432c26.262,12.288 47.947,31.684 65.053,58.187c15.42,23.371 25.419,50.477 29.997,81.317c2.651,18.071 3.735,44.092 3.253,78.065l-269.611,-0c1.445,39.514 13.854,67.222 37.225,83.124c14.215,9.878 31.322,14.818 51.32,14.818c21.203,-0 38.43,-6.024 51.681,-18.071c7.229,-6.505 13.613,-15.541 19.155,-27.106l105.17,0c-2.65,23.372 -14.818,47.104 -36.502,71.198c-33.732,38.309 -80.956,57.464 -141.673,57.464c-50.115,0 -94.327,-16.143 -132.637,-48.429c-38.309,-32.286 -57.464,-84.81 -57.464,-157.574c0,-68.186 17.287,-120.47 51.862,-156.852c34.575,-36.382 79.45,-54.573 134.625,-54.573Z" style="fill:#5b2ba1;fill-rule:nonzero;stroke:#000;stroke-width:1.67px;"/>
  <path d="M2688.42,150.136l63.553,-0l-0,54.269c15.233,-18.804 29.039,-32.49 41.416,-41.059c21.184,-14.52 45.224,-21.779 72.121,-21.779c30.467,-0 54.984,7.497 73.55,22.493c10.473,8.569 19.994,21.184 28.563,37.846c14.281,-20.47 31.062,-35.644 50.342,-45.522c19.28,-9.878 40.94,-14.817 64.98,-14.817c51.413,-0 86.403,18.566 104.969,55.697c9.997,19.994 14.995,46.891 14.995,80.69l0,254.567l-66.765,0l-0,-265.635c-0,-25.468 -6.368,-42.963 -19.102,-52.484c-12.734,-9.521 -28.265,-14.281 -46.593,-14.281c-25.231,-0 -46.95,8.449 -65.159,25.349c-18.209,16.9 -27.313,45.106 -27.313,84.618l-0,222.433l-65.338,0l-0,-249.568c-0,-25.945 -3.094,-44.868 -9.283,-56.769c-9.759,-17.852 -27.968,-26.777 -54.627,-26.777c-24.278,-0 -46.355,9.401 -66.23,28.205c-19.875,18.804 -29.812,52.842 -29.812,102.113l-0,202.796l-64.267,0l0,-382.385Z" style="fill-rule:nonzero;stroke:#000;stroke-width:12.5px;"/>
  <path d="M3456.76,141.567c27.135,-0 53.436,6.367 78.905,19.101c25.469,12.734 44.868,29.218 58.197,49.45c12.853,19.28 21.422,41.773 25.706,67.479c3.809,17.614 5.713,45.701 5.713,84.261l-280.273,-0c1.19,38.798 10.354,69.92 27.491,93.365c17.138,23.445 43.678,35.168 79.62,35.168c33.561,-0 60.339,-11.068 80.333,-33.204c11.425,-12.854 19.518,-27.73 24.278,-44.63l63.196,0c-1.667,14.044 -7.201,29.694 -16.603,46.95c-9.402,17.257 -19.934,31.36 -31.597,42.309c-19.518,19.042 -43.678,31.895 -72.479,38.56c-15.471,3.808 -32.966,5.713 -52.484,5.713c-47.605,-0 -87.95,-17.317 -121.035,-51.949c-33.086,-34.633 -49.628,-83.13 -49.628,-145.492c-0,-61.411 16.661,-111.277 49.985,-149.598c33.323,-38.322 76.882,-57.483 130.675,-57.483Zm102.469,169.235c-2.618,-27.849 -8.688,-50.104 -18.208,-66.766c-17.614,-30.943 -47.01,-46.415 -88.188,-46.415c-29.515,0 -54.27,10.652 -74.264,31.955c-19.994,21.303 -30.586,48.378 -31.776,81.226l212.436,-0Z" style="fill-rule:nonzero;stroke:#000;stroke-width:12.5px;"/>
  <path d="M3744.89,345.791c0,40.94 8.688,75.216 26.064,102.827c17.376,27.611 45.224,41.416 83.546,41.416c29.753,-0 54.21,-12.794 73.371,-38.381c19.161,-25.588 28.742,-62.303 28.742,-110.146c-0,-48.319 -9.878,-84.082 -29.634,-107.289c-19.756,-23.208 -44.154,-34.811 -73.193,-34.811c-32.371,-0 -58.613,12.377 -78.726,37.131c-20.113,24.755 -30.17,61.172 -30.17,109.253Zm96.757,-202.439c29.277,-0 53.793,6.188 73.549,18.566c11.426,7.14 24.398,19.637 38.917,37.489l0,-193.157l61.768,0l-0,526.271l-57.84,0l-0,-53.198c-14.996,23.564 -32.729,40.583 -53.199,51.056c-20.47,10.473 -43.915,15.71 -70.336,15.71c-42.606,-0 -79.5,-17.912 -110.681,-53.734c-31.181,-35.823 -46.772,-83.487 -46.772,-142.993c0,-55.698 14.222,-103.957 42.666,-144.778c28.444,-40.822 69.087,-61.232 121.928,-61.232Z" style="fill-rule:nonzero;stroke:#000;stroke-width:12.5px;"/>
  <path d="M4110.86,151.921l65.338,-0l-0,380.6l-65.338,0l0,-380.6Zm0,-143.886l65.338,0l-0,72.836l-65.338,-0l0,-72.836Z" style="fill-rule:nonzero;stroke:#000;stroke-width:12.5px;"/>
  <path d="M4322.58,430.766c-0,18.566 6.783,33.204 20.351,43.915c13.567,10.711 29.634,16.067 48.2,16.067c22.612,0 44.51,-5.237 65.694,-15.71c35.704,-17.375 53.556,-45.819 53.556,-85.331l-0,-51.77c-7.855,4.998 -17.971,9.163 -30.348,12.496c-12.378,3.332 -24.517,5.712 -36.418,7.141l-38.917,4.998c-23.326,3.094 -40.821,7.974 -52.484,14.639c-19.756,11.187 -29.634,29.038 -29.634,53.555Zm155.667,-129.961c14.758,-1.904 24.636,-8.093 29.634,-18.566c2.857,-5.713 4.285,-13.924 4.285,-24.636c-0,-21.898 -7.796,-37.786 -23.386,-47.664c-15.591,-9.878 -37.905,-14.817 -66.944,-14.817c-33.562,0 -57.364,9.045 -71.408,27.135c-7.854,9.997 -12.972,24.873 -15.352,44.629l-59.982,0c1.19,-47.128 16.483,-79.916 45.879,-98.363c29.396,-18.447 63.493,-27.67 102.291,-27.67c44.986,-0 81.523,8.568 109.61,25.706c27.849,17.138 41.773,43.797 41.773,79.976l0,220.292c0,6.664 1.369,12.02 4.106,16.066c2.737,4.047 8.509,6.07 17.316,6.07c2.857,-0 6.07,-0.179 9.64,-0.536c3.571,-0.357 7.379,-0.892 11.425,-1.606l0,47.485c-9.997,2.857 -17.613,4.642 -22.85,5.356c-5.236,0.714 -12.377,1.071 -21.422,1.071c-22.136,0 -38.203,-7.855 -48.2,-23.564c-5.237,-8.331 -8.926,-20.113 -11.068,-35.347c-13.091,17.138 -31.895,32.014 -56.412,44.63c-24.516,12.615 -51.532,18.923 -81.047,18.923c-35.466,-0 -64.445,-10.771 -86.938,-32.312c-22.494,-21.541 -33.74,-48.498 -33.74,-80.869c-0,-35.465 11.068,-62.957 33.204,-82.475c22.136,-19.518 51.175,-31.538 87.117,-36.061l102.469,-12.853Z" style="fill-rule:nonzero;stroke:#000;stroke-width:12.5px;"/>
</svg>
