<?xml version="1.0" standalone="no"?>
<!DOCTYPE svg PUBLIC "-//W3C//DTD SVG 20010904//EN"
 "http://www.w3.org/TR/2001/REC-SVG-20010904/DTD/svg10.dtd">
<svg version="1.0" xmlns="http://www.w3.org/2000/svg"
 width="700.000000pt" height="700.000000pt" viewBox="0 0 700.000000 700.000000"
 preserveAspectRatio="xMidYMid meet">
<metadata>
Created by potrace 1.11, written by Peter Selinger 2001-2013
</metadata>
<g transform="translate(0.000000,700.000000) scale(0.100000,-0.100000)"
fill="#000000" stroke="none">
<path d="M29 6960 c-1 -64 0 -2325 1 -2340 0 -8 20 48 44 125 160 526 404 975
745 1365 139 160 376 380 532 493 177 129 315 215 506 314 79 40 142 73 140
74 -1 1 -444 2 -985 2 l-982 2 -1 -35z"/>
<path d="M5185 6990 c2 -3 21 -14 42 -25 57 -29 221 -124 283 -164 60 -39 260
-185 300 -220 14 -11 45 -38 70 -59 78 -66 263 -255 346 -354 248 -298 446
-636 603 -1030 51 -129 146 -418 156 -478 3 -19 8 -36 10 -38 2 -2 4 530 4
1182 -1 893 -4 1186 -12 1187 -46 4 -1804 3 -1802 -1z"/>
<path d="M3390 5989 c-127 -9 -186 -18 -275 -41 -44 -11 -90 -22 -102 -25 -13
-3 -23 -9 -23 -13 0 -4 75 -54 168 -111 177 -109 531 -328 747 -463 193 -120
171 -119 174 -12 1 50 4 141 6 201 5 188 7 366 4 369 -2 2 -42 15 -89 29 -195
59 -402 81 -610 66z"/>
<path d="M2775 5819 c-143 -83 -274 -194 -353 -299 -15 -19 -29 -37 -33 -40
-3 -3 -26 -34 -51 -70 -61 -88 -130 -211 -178 -321 -40 -89 -110 -282 -110
-301 0 -5 39 12 88 38 104 56 193 103 327 174 114 60 207 110 280 150 28 15
138 73 245 130 107 57 220 116 250 133 30 16 75 40 100 53 96 49 105 36 -127
179 -296 183 -349 215 -359 215 -5 0 -41 -18 -79 -41z"/>
<path d="M4199 5838 c-3 -8 -7 -114 -13 -338 -29 -1036 -28 -974 -14 -962 7 5
90 49 183 97 340 174 600 308 602 310 11 7 -36 125 -98 249 -109 217 -294 423
-499 558 -101 66 -158 96 -161 86z"/>
<path d="M3380 5372 c-80 -43 -199 -107 -265 -141 -66 -35 -122 -65 -124 -67
-6 -5 -8 -52 -16 -279 -3 -110 -8 -230 -10 -266 -3 -43 0 -71 8 -81 7 -8 75
-54 152 -103 77 -48 156 -98 175 -110 19 -12 73 -46 119 -76 l84 -53 125 65
c69 35 194 99 276 141 l151 77 2 38 c0 21 4 159 8 308 4 148 9 273 11 276 2 4
-78 58 -179 120 -100 62 -223 139 -274 171 -51 32 -94 58 -95 58 -2 0 -68 -35
-148 -78z"/>
<path d="M2810 5069 c-30 -17 -93 -51 -140 -75 -47 -25 -112 -60 -145 -77 -97
-52 -261 -140 -388 -207 -64 -34 -121 -70 -126 -79 -5 -9 -12 -37 -16 -61 -4
-25 -8 -47 -10 -50 -2 -3 -6 -23 -9 -45 -4 -22 -11 -67 -16 -100 -6 -33 -10
-66 -10 -72 0 -10 58 -13 259 -13 l260 0 37 -62 c76 -127 226 -296 301 -340
l29 -17 1 37 c0 41 11 338 18 502 4 100 9 214 20 543 3 81 2 147 -2 146 -4 0
-33 -14 -63 -30z"/>
<path d="M4950 4827 c-49 -25 -377 -194 -555 -287 -60 -32 -220 -114 -355
-183 -384 -197 -429 -221 -424 -228 2 -4 59 -42 127 -84 67 -42 172 -108 232
-145 61 -38 116 -74 123 -80 18 -16 146 75 243 173 65 65 161 192 205 272 11
19 23 20 273 23 l262 2 -6 76 c-8 107 -31 263 -55 369 -12 50 -21 96 -22 103
-1 6 -2 12 -2 11 -1 0 -21 -10 -46 -22z"/>
<path d="M2959 4412 c-2 -12 -6 -108 -13 -327 -4 -115 -9 -225 -11 -242 -1
-18 3 -37 9 -42 21 -17 131 -69 191 -89 139 -48 202 -57 385 -57 139 0 195 6
295 31 50 12 185 65 185 72 -1 4 -60 44 -133 89 -73 46 -231 146 -352 223
-121 76 -238 150 -260 163 -22 13 -97 60 -167 105 -71 45 -128 78 -129 74z"/>
<path d="M1895 2928 c6 -92 13 -164 21 -220 3 -21 6 -50 8 -65 4 -26 19 -122
21 -133 1 -3 7 -32 14 -65 20 -94 71 -262 107 -352 153 -381 411 -638 789
-788 128 -51 340 -102 495 -121 90 -10 500 -14 565 -4 33 4 76 11 95 13 114
17 259 55 370 99 388 152 746 475 855 771 l18 47 872 0 873 0 -1 448 -2 447
-2553 3 -2553 2 6 -82z"/>
<path d="M30 2315 c-1 -9 -2 -2197 -1 -2272 l1 -33 943 0 942 1 -126 63 c-312
157 -560 331 -793 556 -448 433 -749 954 -949 1645 -8 28 -16 46 -17 40z"/>
<path d="M6976 2013 c-57 -182 -208 -528 -314 -718 -252 -454 -556 -795 -924
-1039 -126 -82 -161 -103 -328 -187 l-115 -59 850 3 850 2 2 1028 c1 565 0
1027 -1 1027 -1 0 -10 -26 -20 -57z"/>
</g>
</svg>
